<svg xmlns="http://www.w3.org/2000/svg" xmlns:xlink="http://www.w3.org/1999/xlink" width="625" zoomAndPan="magnify" viewBox="0 0 468.75 187.499995" height="250" preserveAspectRatio="xMidYMid meet" version="1.0"><defs><g/></defs><g fill="#ff3131" fill-opacity="1"><g transform="translate(15.045354, 137.231515)"><g><path d="M 0.953125 0 L 0.953125 -21.421875 L 9.53125 -21.421875 L 9.53125 -17.25 L 5.265625 -17.25 L 5.265625 -13.84375 L 9.296875 -13.84375 L 9.296875 -9.71875 L 5.265625 -9.71875 L 5.265625 0 Z M 0.953125 0 "/></g></g></g><g fill="#ff3131" fill-opacity="1"><g transform="translate(24.997555, 137.231515)"><g><path d="M 0.875 0 L 0.875 -21.546875 L 5.3125 -21.546875 L 5.3125 0 Z M 0.875 0 "/></g></g></g><g fill="#ff3131" fill-opacity="1"><g transform="translate(31.183389, 137.231515)"><g><path d="M 0.84375 -19.46875 L 0.84375 -22.515625 L 5.21875 -22.515625 L 5.21875 -19.46875 Z M 0.84375 0 L 0.84375 -18.25 L 5.21875 -18.25 L 5.21875 0 Z M 0.84375 0 "/></g></g></g><g fill="#ff3131" fill-opacity="1"><g transform="translate(37.244508, 137.231515)"><g><path d="M 11.34375 0 L 6.984375 0 L 5.140625 -5.140625 L 3.390625 0 L 0.09375 0 L 3.4375 -9.796875 L 0.40625 -18.28125 L 4.84375 -18.28125 L 6.40625 -13.84375 L 7.953125 -18.28125 L 11.203125 -18.28125 L 8.0625 -9.25 Z M 11.34375 0 "/></g></g></g><g fill="#ffffff" fill-opacity="1"><g transform="translate(128.218526, 180.739601)"><g><path d="M 1.171875 0 L 1.171875 -26.578125 L 9.28125 -26.578125 L 11.515625 -10.359375 L 13.734375 -26.578125 L 21.90625 -26.578125 L 21.90625 0 L 17.046875 0 L 17.046875 -19.15625 L 13.984375 0 L 9.21875 0 L 5.96875 -19.15625 L 5.96875 0 Z M 1.171875 0 "/></g></g></g><g fill="#ffffff" fill-opacity="1"><g transform="translate(151.292445, 180.739601)"><g><path d="M 0.65625 0.34375 L 3.25 0.34375 C 3.625 0.34375 3.8125 0.1875 3.8125 -0.125 C 3.8125 -0.269531 3.800781 -0.382812 3.78125 -0.46875 L 0.25 -22.640625 L 5.40625 -22.640625 L 6.4375 -11.59375 L 6.9375 -5.96875 L 7.515625 -11.59375 L 8.71875 -22.640625 L 13.921875 -22.640625 L 9.71875 1.171875 C 9.570312 2.054688 9.273438 2.710938 8.828125 3.140625 C 8.390625 3.566406 7.695312 3.78125 6.75 3.78125 L 0.65625 3.78125 Z M 0.65625 0.34375 "/></g></g></g><g fill="#ffffff" fill-opacity="1"><g transform="translate(165.551259, 180.739601)"><g><path d="M 7.296875 0.25 C 2.828125 0.25 0.59375 -2.019531 0.59375 -6.5625 L 0.625 -8.359375 L 6.03125 -8.359375 L 6.0625 -5.6875 C 6.0625 -5.15625 6.164062 -4.75 6.375 -4.46875 C 6.582031 -4.1875 6.921875 -4.046875 7.390625 -4.046875 C 8.117188 -4.046875 8.484375 -4.632812 8.484375 -5.8125 C 8.484375 -6.675781 8.3125 -7.351562 7.96875 -7.84375 C 7.625 -8.34375 7.082031 -8.875 6.34375 -9.4375 L 3.46875 -11.65625 C 2.476562 -12.425781 1.765625 -13.21875 1.328125 -14.03125 C 0.898438 -14.84375 0.6875 -15.992188 0.6875 -17.484375 C 0.6875 -18.640625 0.988281 -19.625 1.59375 -20.4375 C 2.195312 -21.25 3.003906 -21.859375 4.015625 -22.265625 C 5.023438 -22.679688 6.148438 -22.890625 7.390625 -22.890625 C 11.785156 -22.890625 13.984375 -20.703125 13.984375 -16.328125 L 13.984375 -15.90625 L 8.390625 -15.90625 L 8.390625 -16.765625 C 8.390625 -17.304688 8.300781 -17.765625 8.125 -18.140625 C 7.945312 -18.523438 7.648438 -18.71875 7.234375 -18.71875 C 6.867188 -18.71875 6.585938 -18.609375 6.390625 -18.390625 C 6.191406 -18.171875 6.09375 -17.878906 6.09375 -17.515625 C 6.09375 -16.679688 6.410156 -16.039062 7.046875 -15.59375 L 10.390625 -13.140625 C 11.585938 -12.253906 12.503906 -11.289062 13.140625 -10.25 C 13.785156 -9.207031 14.109375 -7.894531 14.109375 -6.3125 C 14.109375 -4.207031 13.507812 -2.585938 12.3125 -1.453125 C 11.113281 -0.316406 9.441406 0.25 7.296875 0.25 Z M 7.296875 0.25 "/></g></g></g><g fill="#ffffff" fill-opacity="1"><g transform="translate(180.243099, 180.739601)"><g><path d="M 5.75 0.25 C 4.332031 0.25 3.351562 -0.046875 2.8125 -0.640625 C 2.28125 -1.242188 2.015625 -2.207031 2.015625 -3.53125 L 2.015625 -17.671875 L 0.5 -17.671875 L 0.5 -21.78125 L 2.015625 -21.78125 L 2.015625 -26.578125 L 7.265625 -26.578125 L 7.265625 -21.78125 L 8.8125 -21.78125 L 8.8125 -17.671875 L 7.265625 -17.671875 L 7.265625 -4.953125 C 7.265625 -4.554688 7.296875 -4.265625 7.359375 -4.078125 C 7.421875 -3.898438 7.585938 -3.8125 7.859375 -3.8125 C 8.066406 -3.8125 8.257812 -3.816406 8.4375 -3.828125 C 8.625 -3.847656 8.75 -3.859375 8.8125 -3.859375 L 8.8125 -0.15625 C 8.507812 -0.0703125 8.0625 0.015625 7.46875 0.109375 C 6.882812 0.203125 6.3125 0.25 5.75 0.25 Z M 5.75 0.25 "/></g></g></g><g fill="#ffffff" fill-opacity="1"><g transform="translate(189.67681, 180.739601)"><g><path d="M 7.421875 0.25 C 5.085938 0.25 3.414062 -0.390625 2.40625 -1.671875 C 1.394531 -2.953125 0.890625 -4.859375 0.890625 -7.390625 L 0.890625 -16.484375 C 0.890625 -18.566406 1.488281 -20.15625 2.6875 -21.25 C 3.882812 -22.34375 5.554688 -22.890625 7.703125 -22.890625 C 12.054688 -22.890625 14.234375 -20.753906 14.234375 -16.484375 L 14.234375 -14.84375 C 14.234375 -13.195312 14.210938 -11.859375 14.171875 -10.828125 L 6.3125 -10.828125 L 6.3125 -6.4375 C 6.3125 -5.65625 6.394531 -5.039062 6.5625 -4.59375 C 6.726562 -4.144531 7.078125 -3.921875 7.609375 -3.921875 C 8.023438 -3.921875 8.316406 -4.046875 8.484375 -4.296875 C 8.660156 -4.546875 8.765625 -4.828125 8.796875 -5.140625 C 8.828125 -5.460938 8.84375 -5.9375 8.84375 -6.5625 L 8.84375 -8.75 L 14.234375 -8.75 L 14.234375 -7.453125 C 14.234375 -4.816406 13.722656 -2.875 12.703125 -1.625 C 11.679688 -0.375 9.921875 0.25 7.421875 0.25 Z M 8.84375 -13.515625 L 8.84375 -16.421875 C 8.84375 -18.054688 8.441406 -18.875 7.640625 -18.875 C 6.734375 -18.875 6.28125 -18.054688 6.28125 -16.421875 L 6.28125 -13.515625 Z M 8.84375 -13.515625 "/></g></g></g><g fill="#ffffff" fill-opacity="1"><g transform="translate(204.770739, 180.739601)"><g><path d="M 1.078125 -22.640625 L 6.5 -22.640625 L 6.5 -20.140625 C 6.769531 -21.023438 7.238281 -21.707031 7.90625 -22.1875 C 8.570312 -22.675781 9.398438 -22.921875 10.390625 -22.921875 L 10.390625 -18.40625 C 9.628906 -18.40625 8.789062 -18.296875 7.875 -18.078125 C 6.957031 -17.867188 6.5 -17.617188 6.5 -17.328125 L 6.5 0 L 1.078125 0 Z M 1.078125 -22.640625 "/></g></g></g><g fill="#ffffff" fill-opacity="1"><g transform="translate(215.410729, 180.739601)"><g><path d="M 1.046875 -24.15625 L 1.046875 -27.9375 L 6.46875 -27.9375 L 6.46875 -24.15625 Z M 1.046875 0 L 1.046875 -22.640625 L 6.46875 -22.640625 L 6.46875 0 Z M 1.046875 0 "/></g></g></g><g fill="#ffffff" fill-opacity="1"><g transform="translate(222.926769, 180.739601)"><g><path d="M 7.671875 0.25 C 3.148438 0.25 0.890625 -2.09375 0.890625 -6.78125 L 0.890625 -15.875 C 0.890625 -18.019531 1.492188 -19.722656 2.703125 -20.984375 C 3.910156 -22.253906 5.566406 -22.890625 7.671875 -22.890625 C 9.773438 -22.890625 11.429688 -22.253906 12.640625 -20.984375 C 13.847656 -19.722656 14.453125 -18.019531 14.453125 -15.875 L 14.453125 -6.78125 C 14.453125 -2.09375 12.191406 0.25 7.671875 0.25 Z M 7.671875 -3.921875 C 8.109375 -3.921875 8.425781 -4.078125 8.625 -4.390625 C 8.832031 -4.703125 8.9375 -5.125 8.9375 -5.65625 L 8.9375 -16.734375 C 8.9375 -18.054688 8.515625 -18.71875 7.671875 -18.71875 C 6.828125 -18.71875 6.40625 -18.054688 6.40625 -16.734375 L 6.40625 -5.65625 C 6.40625 -5.125 6.503906 -4.703125 6.703125 -4.390625 C 6.910156 -4.078125 7.234375 -3.921875 7.671875 -3.921875 Z M 7.671875 -3.921875 "/></g></g></g><g fill="#ffffff" fill-opacity="1"><g transform="translate(238.299076, 180.739601)"><g><path d="M 5.4375 0.25 C 3.75 0.25 2.585938 -0.253906 1.953125 -1.265625 C 1.328125 -2.273438 1.015625 -3.78125 1.015625 -5.78125 L 1.015625 -22.640625 L 6.46875 -22.640625 L 6.46875 -6.875 C 6.46875 -6.726562 6.46875 -6.335938 6.46875 -5.703125 C 6.46875 -5.078125 6.5625 -4.632812 6.75 -4.375 C 6.945312 -4.113281 7.253906 -3.984375 7.671875 -3.984375 C 8.222656 -3.984375 8.570312 -4.21875 8.71875 -4.6875 C 8.863281 -5.15625 8.9375 -5.820312 8.9375 -6.6875 L 8.9375 -6.875 L 8.96875 -22.640625 L 14.359375 -22.640625 L 14.359375 0 L 8.9375 0 L 8.9375 -2.40625 C 8.570312 -1.457031 8.140625 -0.773438 7.640625 -0.359375 C 7.148438 0.046875 6.414062 0.25 5.4375 0.25 Z M 5.4375 0.25 "/></g></g></g><g fill="#ffffff" fill-opacity="1"><g transform="translate(253.733245, 180.739601)"><g><path d="M 7.296875 0.25 C 2.828125 0.25 0.59375 -2.019531 0.59375 -6.5625 L 0.625 -8.359375 L 6.03125 -8.359375 L 6.0625 -5.6875 C 6.0625 -5.15625 6.164062 -4.75 6.375 -4.46875 C 6.582031 -4.1875 6.921875 -4.046875 7.390625 -4.046875 C 8.117188 -4.046875 8.484375 -4.632812 8.484375 -5.8125 C 8.484375 -6.675781 8.3125 -7.351562 7.96875 -7.84375 C 7.625 -8.34375 7.082031 -8.875 6.34375 -9.4375 L 3.46875 -11.65625 C 2.476562 -12.425781 1.765625 -13.21875 1.328125 -14.03125 C 0.898438 -14.84375 0.6875 -15.992188 0.6875 -17.484375 C 0.6875 -18.640625 0.988281 -19.625 1.59375 -20.4375 C 2.195312 -21.25 3.003906 -21.859375 4.015625 -22.265625 C 5.023438 -22.679688 6.148438 -22.890625 7.390625 -22.890625 C 11.785156 -22.890625 13.984375 -20.703125 13.984375 -16.328125 L 13.984375 -15.90625 L 8.390625 -15.90625 L 8.390625 -16.765625 C 8.390625 -17.304688 8.300781 -17.765625 8.125 -18.140625 C 7.945312 -18.523438 7.648438 -18.71875 7.234375 -18.71875 C 6.867188 -18.71875 6.585938 -18.609375 6.390625 -18.390625 C 6.191406 -18.171875 6.09375 -17.878906 6.09375 -17.515625 C 6.09375 -16.679688 6.410156 -16.039062 7.046875 -15.59375 L 10.390625 -13.140625 C 11.585938 -12.253906 12.503906 -11.289062 13.140625 -10.25 C 13.785156 -9.207031 14.109375 -7.894531 14.109375 -6.3125 C 14.109375 -4.207031 13.507812 -2.585938 12.3125 -1.453125 C 11.113281 -0.316406 9.441406 0.25 7.296875 0.25 Z M 7.296875 0.25 "/></g></g></g><g fill="#ffffff" fill-opacity="1"><g transform="translate(268.425085, 180.739601)"><g/></g></g><g fill="#ffffff" fill-opacity="1"><g transform="translate(275.662745, 180.739601)"><g><path d="M 5.75 0.25 C 4.332031 0.25 3.351562 -0.046875 2.8125 -0.640625 C 2.28125 -1.242188 2.015625 -2.207031 2.015625 -3.53125 L 2.015625 -17.671875 L 0.5 -17.671875 L 0.5 -21.78125 L 2.015625 -21.78125 L 2.015625 -26.578125 L 7.265625 -26.578125 L 7.265625 -21.78125 L 8.8125 -21.78125 L 8.8125 -17.671875 L 7.265625 -17.671875 L 7.265625 -4.953125 C 7.265625 -4.554688 7.296875 -4.265625 7.359375 -4.078125 C 7.421875 -3.898438 7.585938 -3.8125 7.859375 -3.8125 C 8.066406 -3.8125 8.257812 -3.816406 8.4375 -3.828125 C 8.625 -3.847656 8.75 -3.859375 8.8125 -3.859375 L 8.8125 -0.15625 C 8.507812 -0.0703125 8.0625 0.015625 7.46875 0.109375 C 6.882812 0.203125 6.3125 0.25 5.75 0.25 Z M 5.75 0.25 "/></g></g></g><g fill="#ffffff" fill-opacity="1"><g transform="translate(285.096456, 180.739601)"><g><path d="M 1.078125 -26.734375 L 6.65625 -26.734375 L 6.65625 -20.421875 C 7.226562 -22.066406 8.332031 -22.890625 9.96875 -22.890625 C 11.488281 -22.890625 12.640625 -22.40625 13.421875 -21.4375 C 14.210938 -20.46875 14.609375 -19.140625 14.609375 -17.453125 L 14.609375 0 L 9.1875 0 L 9.1875 -17.109375 C 9.1875 -17.597656 9.070312 -18 8.84375 -18.3125 C 8.613281 -18.625 8.285156 -18.78125 7.859375 -18.78125 C 7.484375 -18.78125 7.1875 -18.617188 6.96875 -18.296875 C 6.757812 -17.972656 6.65625 -17.585938 6.65625 -17.140625 L 6.65625 0 L 1.078125 0 Z M 1.078125 -26.734375 "/></g></g></g><g fill="#ffffff" fill-opacity="1"><g transform="translate(300.716207, 180.739601)"><g><path d="M 1.046875 -24.15625 L 1.046875 -27.9375 L 6.46875 -27.9375 L 6.46875 -24.15625 Z M 1.046875 0 L 1.046875 -22.640625 L 6.46875 -22.640625 L 6.46875 0 Z M 1.046875 0 "/></g></g></g><g fill="#ffffff" fill-opacity="1"><g transform="translate(308.232247, 180.739601)"><g><path d="M 1.078125 -22.640625 L 6.5 -22.640625 L 6.5 -19.765625 C 6.726562 -20.691406 7.117188 -21.441406 7.671875 -22.015625 C 8.222656 -22.597656 8.96875 -22.890625 9.90625 -22.890625 C 11.425781 -22.890625 12.550781 -22.421875 13.28125 -21.484375 C 14.019531 -20.546875 14.390625 -19.210938 14.390625 -17.484375 L 14.390625 0 L 9.0625 0 L 9.0625 -16.921875 C 9.0625 -17.421875 8.960938 -17.84375 8.765625 -18.1875 C 8.578125 -18.539062 8.273438 -18.71875 7.859375 -18.71875 C 7.296875 -18.71875 6.925781 -18.460938 6.75 -17.953125 C 6.582031 -17.453125 6.5 -16.78125 6.5 -15.9375 L 6.5 0 L 1.078125 0 Z M 1.078125 -22.640625 "/></g></g></g><g fill="#ffffff" fill-opacity="1"><g transform="translate(323.666415, 180.739601)"><g><path d="M 7.171875 3.3125 C 5.566406 3.3125 4.304688 3.179688 3.390625 2.921875 C 2.472656 2.660156 1.570312 2.171875 0.6875 1.453125 L 2.53125 -1.671875 C 3.851562 -0.890625 5.164062 -0.5 6.46875 -0.5 C 7.3125 -0.5 7.945312 -0.765625 8.375 -1.296875 C 8.8125 -1.835938 9.03125 -2.570312 9.03125 -3.5 L 9.03125 -4.734375 C 8.601562 -3.179688 7.457031 -2.40625 5.59375 -2.40625 C 4.050781 -2.40625 2.910156 -2.929688 2.171875 -3.984375 C 1.441406 -5.035156 1.078125 -6.441406 1.078125 -8.203125 L 1.078125 -16.703125 C 1.078125 -18.703125 1.410156 -20.234375 2.078125 -21.296875 C 2.753906 -22.359375 3.925781 -22.890625 5.59375 -22.890625 C 6.5625 -22.890625 7.328125 -22.644531 7.890625 -22.15625 C 8.460938 -21.675781 8.84375 -20.992188 9.03125 -20.109375 L 9.03125 -22.640625 L 14.578125 -22.640625 L 14.578125 -3.84375 C 14.578125 -1.300781 13.988281 0.523438 12.8125 1.640625 C 11.632812 2.753906 9.753906 3.3125 7.171875 3.3125 Z M 7.765625 -6.5 C 8.609375 -6.5 9.03125 -7.257812 9.03125 -8.78125 L 9.03125 -16.859375 C 9.03125 -17.316406 8.90625 -17.75 8.65625 -18.15625 C 8.414062 -18.570312 8.109375 -18.78125 7.734375 -18.78125 C 7.253906 -18.78125 6.929688 -18.609375 6.765625 -18.265625 C 6.609375 -17.929688 6.53125 -17.460938 6.53125 -16.859375 L 6.53125 -8.78125 C 6.53125 -8.101562 6.609375 -7.550781 6.765625 -7.125 C 6.929688 -6.707031 7.265625 -6.5 7.765625 -6.5 Z M 7.765625 -6.5 "/></g></g></g><g fill="#ffffff" fill-opacity="1"><g transform="translate(339.25523, 180.739601)"><g><path d="M 7.296875 0.25 C 2.828125 0.25 0.59375 -2.019531 0.59375 -6.5625 L 0.625 -8.359375 L 6.03125 -8.359375 L 6.0625 -5.6875 C 6.0625 -5.15625 6.164062 -4.75 6.375 -4.46875 C 6.582031 -4.1875 6.921875 -4.046875 7.390625 -4.046875 C 8.117188 -4.046875 8.484375 -4.632812 8.484375 -5.8125 C 8.484375 -6.675781 8.3125 -7.351562 7.96875 -7.84375 C 7.625 -8.34375 7.082031 -8.875 6.34375 -9.4375 L 3.46875 -11.65625 C 2.476562 -12.425781 1.765625 -13.21875 1.328125 -14.03125 C 0.898438 -14.84375 0.6875 -15.992188 0.6875 -17.484375 C 0.6875 -18.640625 0.988281 -19.625 1.59375 -20.4375 C 2.195312 -21.25 3.003906 -21.859375 4.015625 -22.265625 C 5.023438 -22.679688 6.148438 -22.890625 7.390625 -22.890625 C 11.785156 -22.890625 13.984375 -20.703125 13.984375 -16.328125 L 13.984375 -15.90625 L 8.390625 -15.90625 L 8.390625 -16.765625 C 8.390625 -17.304688 8.300781 -17.765625 8.125 -18.140625 C 7.945312 -18.523438 7.648438 -18.71875 7.234375 -18.71875 C 6.867188 -18.71875 6.585938 -18.609375 6.390625 -18.390625 C 6.191406 -18.171875 6.09375 -17.878906 6.09375 -17.515625 C 6.09375 -16.679688 6.410156 -16.039062 7.046875 -15.59375 L 10.390625 -13.140625 C 11.585938 -12.253906 12.503906 -11.289062 13.140625 -10.25 C 13.785156 -9.207031 14.109375 -7.894531 14.109375 -6.3125 C 14.109375 -4.207031 13.507812 -2.585938 12.3125 -1.453125 C 11.113281 -0.316406 9.441406 0.25 7.296875 0.25 Z M 7.296875 0.25 "/></g></g></g><g fill="#ffffff" fill-opacity="1"><g transform="translate(52.842054, 131.992685)"><g><path d="M 3.375 0.109375 C 2.289062 0.109375 1.503906 -0.160156 1.015625 -0.703125 C 0.535156 -1.242188 0.296875 -2.113281 0.296875 -3.3125 L 0.296875 -4.484375 L 2.65625 -4.484375 L 2.65625 -2.984375 C 2.65625 -2.390625 2.847656 -2.09375 3.234375 -2.09375 C 3.441406 -2.09375 3.585938 -2.15625 3.671875 -2.28125 C 3.753906 -2.40625 3.796875 -2.617188 3.796875 -2.921875 C 3.796875 -3.304688 3.75 -3.628906 3.65625 -3.890625 C 3.5625 -4.148438 3.441406 -4.363281 3.296875 -4.53125 C 3.160156 -4.707031 2.90625 -4.976562 2.53125 -5.34375 L 1.5 -6.375 C 0.695312 -7.15625 0.296875 -8.019531 0.296875 -8.96875 C 0.296875 -9.988281 0.53125 -10.765625 1 -11.296875 C 1.46875 -11.835938 2.15625 -12.109375 3.0625 -12.109375 C 4.132812 -12.109375 4.910156 -11.820312 5.390625 -11.25 C 5.867188 -10.675781 6.109375 -9.78125 6.109375 -8.5625 L 3.65625 -8.5625 L 3.640625 -9.390625 C 3.640625 -9.546875 3.59375 -9.671875 3.5 -9.765625 C 3.414062 -9.859375 3.296875 -9.90625 3.140625 -9.90625 C 2.953125 -9.90625 2.8125 -9.851562 2.71875 -9.75 C 2.625 -9.644531 2.578125 -9.503906 2.578125 -9.328125 C 2.578125 -8.941406 2.800781 -8.535156 3.25 -8.109375 L 4.65625 -6.78125 C 4.976562 -6.457031 5.242188 -6.15625 5.453125 -5.875 C 5.671875 -5.59375 5.84375 -5.253906 5.96875 -4.859375 C 6.101562 -4.472656 6.171875 -4.015625 6.171875 -3.484375 C 6.171875 -2.304688 5.953125 -1.410156 5.515625 -0.796875 C 5.085938 -0.191406 4.375 0.109375 3.375 0.109375 Z M 3.375 0.109375 "/></g></g></g><g fill="#ffffff" fill-opacity="1"><g transform="translate(59.278734, 131.992685)"><g><path d="M 3.359375 0.109375 C 2.304688 0.109375 1.550781 -0.175781 1.09375 -0.75 C 0.632812 -1.332031 0.40625 -2.195312 0.40625 -3.34375 L 0.40625 -7.453125 C 0.40625 -8.390625 0.675781 -9.101562 1.21875 -9.59375 C 1.757812 -10.09375 2.515625 -10.34375 3.484375 -10.34375 C 5.441406 -10.34375 6.421875 -9.378906 6.421875 -7.453125 L 6.421875 -6.703125 C 6.421875 -5.960938 6.410156 -5.359375 6.390625 -4.890625 L 2.84375 -4.890625 L 2.84375 -2.90625 C 2.84375 -2.550781 2.878906 -2.273438 2.953125 -2.078125 C 3.035156 -1.878906 3.195312 -1.78125 3.4375 -1.78125 C 3.625 -1.78125 3.753906 -1.832031 3.828125 -1.9375 C 3.910156 -2.050781 3.957031 -2.179688 3.96875 -2.328125 C 3.988281 -2.472656 4 -2.6875 4 -2.96875 L 4 -3.953125 L 6.421875 -3.953125 L 6.421875 -3.359375 C 6.421875 -2.171875 6.191406 -1.296875 5.734375 -0.734375 C 5.273438 -0.171875 4.484375 0.109375 3.359375 0.109375 Z M 4 -6.109375 L 4 -7.421875 C 4 -8.148438 3.816406 -8.515625 3.453125 -8.515625 C 3.035156 -8.515625 2.828125 -8.148438 2.828125 -7.421875 L 2.828125 -6.109375 Z M 4 -6.109375 "/></g></g></g><g fill="#ffffff" fill-opacity="1"><g transform="translate(66.092391, 131.992685)"><g><path d="M 0.484375 -10.21875 L 2.9375 -10.21875 L 2.9375 -9.09375 C 3.050781 -9.488281 3.257812 -9.796875 3.5625 -10.015625 C 3.863281 -10.234375 4.238281 -10.34375 4.6875 -10.34375 L 4.6875 -8.3125 C 4.34375 -8.3125 3.960938 -8.257812 3.546875 -8.15625 C 3.140625 -8.0625 2.9375 -7.953125 2.9375 -7.828125 L 2.9375 0 L 0.484375 0 Z M 0.484375 -10.21875 "/></g></g></g><g fill="#ffffff" fill-opacity="1"><g transform="translate(70.895466, 131.992685)"><g><path d="M 0.46875 -10.90625 L 0.46875 -12.609375 L 2.921875 -12.609375 L 2.921875 -10.90625 Z M 0.46875 0 L 0.46875 -10.21875 L 2.921875 -10.21875 L 2.921875 0 Z M 0.46875 0 "/></g></g></g><g fill="#ffffff" fill-opacity="1"><g transform="translate(74.288328, 131.992685)"><g><path d="M 3.359375 0.109375 C 2.304688 0.109375 1.550781 -0.175781 1.09375 -0.75 C 0.632812 -1.332031 0.40625 -2.195312 0.40625 -3.34375 L 0.40625 -7.453125 C 0.40625 -8.390625 0.675781 -9.101562 1.21875 -9.59375 C 1.757812 -10.09375 2.515625 -10.34375 3.484375 -10.34375 C 5.441406 -10.34375 6.421875 -9.378906 6.421875 -7.453125 L 6.421875 -6.703125 C 6.421875 -5.960938 6.410156 -5.359375 6.390625 -4.890625 L 2.84375 -4.890625 L 2.84375 -2.90625 C 2.84375 -2.550781 2.878906 -2.273438 2.953125 -2.078125 C 3.035156 -1.878906 3.195312 -1.78125 3.4375 -1.78125 C 3.625 -1.78125 3.753906 -1.832031 3.828125 -1.9375 C 3.910156 -2.050781 3.957031 -2.179688 3.96875 -2.328125 C 3.988281 -2.472656 4 -2.6875 4 -2.96875 L 4 -3.953125 L 6.421875 -3.953125 L 6.421875 -3.359375 C 6.421875 -2.171875 6.191406 -1.296875 5.734375 -0.734375 C 5.273438 -0.171875 4.484375 0.109375 3.359375 0.109375 Z M 4 -6.109375 L 4 -7.421875 C 4 -8.148438 3.816406 -8.515625 3.453125 -8.515625 C 3.035156 -8.515625 2.828125 -8.148438 2.828125 -7.421875 L 2.828125 -6.109375 Z M 4 -6.109375 "/></g></g></g><g fill="#ffffff" fill-opacity="1"><g transform="translate(81.101985, 131.992685)"><g><path d="M 3.296875 0.109375 C 1.273438 0.109375 0.265625 -0.914062 0.265625 -2.96875 L 0.28125 -3.765625 L 2.71875 -3.765625 L 2.734375 -2.5625 C 2.734375 -2.320312 2.78125 -2.140625 2.875 -2.015625 C 2.96875 -1.890625 3.125 -1.828125 3.34375 -1.828125 C 3.664062 -1.828125 3.828125 -2.09375 3.828125 -2.625 C 3.828125 -3.019531 3.75 -3.328125 3.59375 -3.546875 C 3.4375 -3.773438 3.191406 -4.015625 2.859375 -4.265625 L 1.5625 -5.265625 C 1.113281 -5.609375 0.789062 -5.960938 0.59375 -6.328125 C 0.40625 -6.703125 0.3125 -7.222656 0.3125 -7.890625 C 0.3125 -8.410156 0.445312 -8.851562 0.71875 -9.21875 C 0.988281 -9.59375 1.351562 -9.875 1.8125 -10.0625 C 2.269531 -10.25 2.78125 -10.34375 3.34375 -10.34375 C 5.320312 -10.34375 6.3125 -9.351562 6.3125 -7.375 L 6.3125 -7.1875 L 3.78125 -7.1875 L 3.78125 -7.578125 C 3.78125 -7.816406 3.738281 -8.019531 3.65625 -8.1875 C 3.582031 -8.363281 3.453125 -8.453125 3.265625 -8.453125 C 3.097656 -8.453125 2.96875 -8.398438 2.875 -8.296875 C 2.789062 -8.203125 2.75 -8.070312 2.75 -7.90625 C 2.75 -7.53125 2.894531 -7.242188 3.1875 -7.046875 L 4.6875 -5.9375 C 5.226562 -5.539062 5.644531 -5.101562 5.9375 -4.625 C 6.226562 -4.15625 6.375 -3.5625 6.375 -2.84375 C 6.375 -1.894531 6.101562 -1.164062 5.5625 -0.65625 C 5.019531 -0.144531 4.265625 0.109375 3.296875 0.109375 Z M 3.296875 0.109375 "/></g></g></g></svg>